# xmcd CD database file
#
# Track frame offsets:
#	150
#	21968
#	38575
#	62763
#	78330
#	103988
#	114110
#	136589
#	164648
#	183488
#	202475
#
# Disc length: 2870 seconds
#
# Revision: 0
# Processed by: cddbd v1.5.1PL2 Copyright (c) Steve Scherf et al.
# Submitted via: CDex 1.51
#
DISCID=950b340b
DTITLE=Pink Martini - Sympathique
DYEAR=1999
DGENRE=Salsa
TTITLE0=Pink Martini - Amado mio
TTITLE1=Inconnu - Pink Martini - Andalucia
TTITLE2=Inconnu - Pink Martini - Brazil
TTITLE3=Inconnu - Pink Martini - Donde Estas, Yolanda-
TTITLE4=Inconnu - Pink Martini - La Soledad
TTITLE5=Inconnu - Pink Martini - Lullaby
TTITLE6=Inconnu - Pink Martini - Never on Sunday
TTITLE7=Inconnu - Pink Martini - No Hay Problema
TTITLE8=Inconnu - Pink Martini - Que Sera Sera
TTITLE9=Inconnu - Pink Martini - Song of the Black Lizard
TTITLE10=Inconnu - Pink Martini - Sympathique
EXTD=YEAR: 1999
EXTT0=
EXTT1=
EXTT2=
EXTT3=
EXTT4=
EXTT5=
EXTT6=
EXTT7=
EXTT8=
EXTT9=
EXTT10=
PLAYORDER=
